<svg xmlns="http://www.w3.org/2000/svg" viewBox="0 0 688.9 166.45"><defs><style>.cls-1{fill:#371ee1;}</style></defs><g id="Layer_2" data-name="Layer 2"><g id="Layer_1-2" data-name="Layer 1"><path class="cls-1" d="M210.14,49.75a26.66,26.66,0,0,1,27-26.95c11.51,0,20.63,6.53,24.57,15.86l-9.95,4.25a15.46,15.46,0,0,0-14.62-9.74C228,33.17,221,40.53,221,49.75a16.32,16.32,0,0,0,16.37,16.58c7.05,0,12.23-4.35,14.61-10.15l10.06,4.24C257.91,70,249.31,76.7,237.18,76.7A26.72,26.72,0,0,1,210.14,49.75Z"/><path class="cls-1" d="M265.64,49.75c0-16.58,12.34-26.95,25.91-26.95,6.84,0,13.37,3,17.21,7.78V23.84h11.09V75.66H308.76V68.51a22,22,0,0,1-17.31,8.19C278.29,76.7,265.64,66.23,265.64,49.75Zm43.74-.1c0-9.23-6.94-16.79-16.37-16.79-9.23,0-16.38,7.36-16.38,16.79S283.78,66.54,293,66.54C302.44,66.54,309.38,59,309.38,49.65Z"/><path class="cls-1" d="M329.53,23.84h11.09V32c2.8-5.29,7.87-8.19,15.13-8.19h5V34.41H354c-9.43,0-13.27,4.77-13.27,15.55v25.7H329.53Z"/><path class="cls-1" d="M363.58,49.75c0-16.58,12.34-26.95,25.91-26.95a22.07,22.07,0,0,1,17.21,8.09v-7h11.09V74.42c0,15.23-9.54,26.42-26.12,26.42-12.95,0-21.76-6.21-25.7-14.61l10.26-4.87c2.59,5.7,7.56,9.33,15.44,9.33,9.43,0,15.13-7,15.13-15.86V68.3a22.13,22.13,0,0,1-17.41,8.4C376.23,76.7,363.58,66.23,363.58,49.75Zm43.74-.1c0-9.23-6.94-16.79-16.38-16.79-9.22,0-16.37,7.36-16.37,16.79s7.15,16.89,16.37,16.89C400.38,66.54,407.32,59,407.32,49.65Z"/><path class="cls-1" d="M425.07,49.75a26.9,26.9,0,1,1,26.85,27A26.68,26.68,0,0,1,425.07,49.75Zm42.81,0c0-9.12-7.05-16.58-16-16.58s-15.86,7.46-15.86,16.58S443,66.33,451.92,66.33,467.88,58.87,467.88,49.75Z"/><path class="cls-1" d="M480.22,23.74l11.3.1,11.81,36.79,13.58-36.79h11l13.37,36.79,12.23-36.79h11.3l-18,51.82H536.08l-13.78-37-14,37H497.43Z"/><path class="cls-1" d="M575.78.94a7.18,7.18,0,0,1,7.46,7.46,7.46,7.46,0,0,1-14.92,0A7.18,7.18,0,0,1,575.78.94Zm-5.6,22.9h11.19V75.66H570.18Z"/><path class="cls-1" d="M586.63,65l10-5.39c3,4.87,7.46,7.46,13.68,7.46,6.42,0,9.74-3.11,9.74-6.74,0-4.25-6.22-5.18-12.85-6.63C598.34,51.93,589,49,589,38.35c0-8.19,7.88-15.75,20.21-15.65,10,0,16.79,3.73,21.14,10.05L621,37.83c-2.49-3.73-6.33-5.91-11.82-5.91-6.11,0-9,2.8-9,6.22,0,3.73,4.46,4.56,12.34,6.33,8.7,1.86,18.55,4.76,18.55,15.64,0,7.78-7,16.69-21.35,16.59C598.55,76.7,591.08,72.65,586.63,65Z"/><path class="cls-1" d="M635.32,50c0-15.24,11.71-27.16,26.94-27.16S688.9,33.89,688.9,49.23v4.36H646c1.45,8,7.67,13.26,16.69,13.26a16.25,16.25,0,0,0,15.13-9.33l9.12,5.08c-4.56,8.5-12.75,14.1-24.25,14.1C646.3,76.7,635.32,65,635.32,50Zm11.19-5.81H677.6c-1.66-7.46-7.36-11.6-15.34-11.6A16.1,16.1,0,0,0,646.51,44.15Z"/><path class="cls-1" d="M30.3,15.13H75.69V0H30.3Zm15.11,45.4H0V75.66h45.4ZM30.3,166.45H75.69V151.32H30.3ZM90.83,0V15.13h75.65V0Zm0,45.4h75.65V30.26H90.83Zm0,30.26h75.65V60.53H90.83ZM75.66,90.79H0v15.13H75.66Zm15,45.4h75.66V121.05H90.71Z"/></g></g></svg>