<svg width="369" height="118" viewBox="0 0 369 78" fill="none" xmlns="http://www.w3.org/2000/svg">
<path d="M120.384 66.3102L128.272 62.5647C130.263 66.9476 134.086 69.738 140.143 69.738C147.394 69.738 151.776 64.3558 151.776 57.5427V52.5207C150.179 54.5403 148.145 56.1709 145.826 57.2897C143.508 58.4085 140.965 58.9865 138.391 58.9797C135.718 58.9541 133.077 58.3941 130.624 57.3325C128.17 56.271 125.954 54.7292 124.105 52.7982C122.256 50.8672 120.811 48.5859 119.857 46.0885C118.902 43.591 118.457 40.9279 118.547 38.2557C118.547 25.5059 128.033 17.5301 138.468 17.5301C140.998 17.515 143.499 18.0658 145.789 19.1423C148.078 20.2188 150.098 21.7938 151.701 23.7518V18.3618H160.228V57.2179C160.228 68.922 152.893 77.5351 140.145 77.5351C130.187 77.5459 123.414 72.7705 120.384 66.3117V66.3102ZM126.996 38.1801C126.951 39.8642 127.244 41.5403 127.856 43.1099C128.468 44.6796 129.387 46.1112 130.559 47.3209C131.732 48.5306 133.134 49.494 134.683 50.1547C136.233 50.8154 137.899 51.1603 139.583 51.1687C141.27 51.1695 142.941 50.8309 144.495 50.1735C146.049 49.5161 147.455 48.5531 148.63 47.3416C149.804 46.1301 150.724 44.6947 151.333 43.1208C151.942 41.547 152.229 39.8669 152.177 38.1801C152.22 36.4993 151.926 34.8269 151.313 33.2615C150.699 31.6961 149.778 30.2695 148.604 29.0659C147.43 27.8624 146.027 26.9062 144.478 26.254C142.928 25.6018 141.264 25.2667 139.583 25.2685C137.903 25.2682 136.239 25.6046 134.691 26.2574C133.142 26.9102 131.74 27.8664 130.567 29.0697C129.394 30.273 128.474 31.6991 127.86 33.2638C127.247 34.8285 126.953 36.5 126.996 38.1801ZM171.79 52.9644C169.868 51.0314 168.35 48.7347 167.326 46.2084C166.301 43.6821 165.791 40.9767 165.823 38.2508C165.844 32.7668 168.041 27.5156 171.931 23.6511C175.821 19.7866 181.087 17.6253 186.57 17.6425C192.053 17.6592 197.305 19.8528 201.171 23.7413C205.038 27.6298 207.202 32.8946 207.189 38.3786C207.176 43.8631 204.985 49.1183 201.1 52.9881C197.214 56.8579 191.95 59.0257 186.467 59.0151H186.333C183.631 59.0163 180.955 58.4835 178.46 57.4472C175.964 56.4109 173.698 54.8914 171.791 52.9764L171.79 52.9644ZM174.243 38.2508C174.202 39.8923 174.487 41.5256 175.08 43.0566C175.674 44.5875 176.565 45.9861 177.701 47.1713C178.837 48.3564 180.197 49.3049 181.701 49.9622C183.206 50.6194 184.825 50.9723 186.467 51.0007C188.111 50.9732 189.733 50.6215 191.241 49.9652C192.748 49.3089 194.111 48.3609 195.252 47.1762C196.392 45.9915 197.287 44.5931 197.885 43.0614C198.484 41.5298 198.774 39.8949 198.739 38.2508C198.772 36.6046 198.481 34.9682 197.88 33.4352C197.279 31.9022 196.382 30.5031 195.238 29.3182C194.095 28.1334 192.729 27.1861 191.219 26.5311C189.709 25.876 188.084 25.5261 186.438 25.5013C184.796 25.5283 183.177 25.8809 181.673 26.5386C180.169 27.1963 178.811 28.1458 177.677 29.3325C176.542 30.5192 175.655 31.9191 175.066 33.4514C174.477 34.9836 174.197 36.6177 174.244 38.2587L174.243 38.2508ZM307.794 58.9763C299.207 58.9763 293.462 55.8624 290.041 49.978L297.731 45.8339C298.79 47.6622 300.331 49.1641 302.186 50.1758C304.041 51.1874 306.138 51.6701 308.249 51.5706C313.185 51.5706 315.738 49.179 315.738 46.387C315.738 43.1191 310.956 42.4029 305.857 41.2879C299.046 39.9266 291.864 37.675 291.864 29.4852C291.864 23.1865 297.923 17.373 307.403 17.45C315.093 17.45 320.313 20.3176 323.657 25.1779L316.469 29.0832C315.483 27.5991 314.125 26.3989 312.532 25.6016C310.938 24.8044 309.164 24.4381 307.385 24.5388C302.687 24.5388 300.464 26.6947 300.464 29.322C300.464 32.191 303.894 32.8284 309.952 34.1898C316.64 35.6205 324.214 37.8521 324.214 46.2174C324.214 52.1665 318.89 58.9763 307.981 58.9763H307.794ZM6.61178 52.9828C4.67538 51.0529 3.14366 48.7558 2.10642 46.2261C1.06918 43.6964 0.547283 40.9848 0.571326 38.2508C0.541053 35.5176 1.05768 32.806 2.09081 30.2755C3.12394 27.745 4.65269 25.4469 6.58712 23.5161C8.52111 21.5849 10.8217 20.0598 13.3536 19.031C15.8855 18.0022 18.5976 17.4902 21.3302 17.5252C25.3371 17.4376 29.2784 18.5527 32.6456 20.7267C36.0128 22.9007 38.6515 26.0342 40.2214 29.7224L32.5719 32.9904C31.6796 30.7486 30.1264 28.8311 28.1187 27.4932C26.1111 26.1553 23.7439 25.4602 21.3318 25.4998C19.6745 25.5034 18.0346 25.8378 16.5084 26.4841C14.9822 27.1303 13.6005 28.0752 12.4444 29.2629C11.2883 30.4507 10.3812 31.8574 9.77617 33.4006C9.17118 34.9438 8.88057 36.5922 8.92139 38.2493C8.89217 39.9187 9.19634 41.5772 9.81608 43.1276C10.4358 44.678 11.3587 46.0893 12.5306 47.2784C13.7027 48.4658 15.0997 49.4073 16.64 50.0483C18.1803 50.6893 19.8329 51.0169 21.5011 51.0116C23.9472 51.0126 26.335 50.2653 28.3442 48.87C30.3534 47.4746 31.8877 45.4978 32.7413 43.2051L40.4755 46.4671C38.9468 50.2549 36.2962 53.4841 32.8795 55.7218C29.4628 57.9596 25.4435 59.0985 21.361 58.9857H21.1131C15.6765 58.9858 10.4616 56.8297 6.61178 52.9903V52.9828ZM63.0882 58.9748C60.4151 58.9492 57.7741 58.3892 55.3206 57.3277C52.8671 56.2661 50.6506 54.7247 48.8016 52.7937C46.9526 50.8627 45.5084 48.5814 44.5539 46.084C43.5995 43.5865 43.1541 40.923 43.2439 38.2508C43.2439 25.501 52.7303 17.5252 63.1652 17.5252C65.674 17.4934 68.1593 18.0126 70.4457 19.046C72.7321 20.0795 74.7639 21.6022 76.3978 23.5067V18.3245H84.9249V58.174H76.3978V52.6764C74.8131 54.6426 72.8082 56.2287 70.5304 57.3186C68.2525 58.4086 65.7596 58.9745 63.2345 58.9748H63.0882ZM51.6941 38.1741C51.65 39.8582 51.9425 41.5339 52.5545 43.1036C53.1664 44.6732 54.0855 46.1048 55.2579 47.3145C56.4303 48.5243 57.8323 49.488 59.3818 50.1487C60.9313 50.8094 62.5971 51.1539 64.2815 51.1623C65.9689 51.1631 67.6392 50.8249 69.1933 50.1675C70.7474 49.5101 72.1536 48.5471 73.3283 47.3356C74.503 46.1241 75.4223 44.6886 76.0316 43.1148C76.6409 41.541 76.9277 39.8609 76.8751 38.1741C76.9187 36.4937 76.6253 34.8217 76.0122 33.2566C75.3992 31.6915 74.4788 30.2649 73.3055 29.0614C72.1322 27.8579 70.7298 26.902 69.181 26.2495C67.6321 25.597 65.9683 25.2613 64.2877 25.2625C62.6062 25.2613 60.9415 25.597 59.3918 26.2498C57.8422 26.9026 56.4389 27.8593 55.265 29.0633C54.091 30.2673 53.1701 31.6942 52.5565 33.26C51.9429 34.8258 51.6492 36.4989 51.6925 38.1801L51.6941 38.1741ZM327.48 38.4452C327.43 35.7026 327.931 32.9776 328.952 30.4319C329.974 27.8862 331.495 25.5715 333.426 23.624C335.358 21.6765 337.66 20.136 340.197 19.0938C342.733 18.0516 345.453 17.5286 348.196 17.556C359.898 17.556 368.674 26.0538 368.674 37.8503V41.203H335.69C336.805 47.363 341.586 51.3996 348.522 51.3996C350.948 51.4633 353.341 50.8188 355.406 49.5449C357.472 48.2709 359.122 46.4229 360.155 44.2262L367.167 48.1315C365.407 51.521 362.72 54.3404 359.418 56.2602C356.117 58.1801 352.338 59.1215 348.522 58.9748C335.921 58.9825 327.479 49.9859 327.479 38.4512L327.48 38.4452ZM336.084 33.9465V33.9774H359.987C358.711 28.2408 354.329 25.0576 348.193 25.0576H347.957C345.283 25.0579 342.681 25.9245 340.54 27.5278C338.399 29.1311 336.836 31.3845 336.083 33.9511L336.084 33.9465ZM277.395 58.1774V18.326H285.999V58.1755L277.395 58.1774ZM251.178 58.1774L240.583 29.7254L229.82 58.1774H221.461L208.23 18.2524L216.918 18.3294L226.003 46.6209L236.445 18.3294H244.903L255.183 46.6209L264.584 18.3294H273.273L259.434 58.1789L251.178 58.1774ZM92.3681 58.1774V18.326H100.895V24.6019C103.051 20.5317 106.945 18.3031 112.528 18.3031H116.377V26.4544H111.187C103.936 26.4544 100.985 30.1226 100.985 38.4109V58.174L92.3681 58.1774ZM275.966 6.45558C275.936 5.694 276.064 4.93465 276.342 4.22489C276.619 3.51513 277.041 2.87035 277.58 2.33145C278.119 1.79245 278.763 1.37086 279.473 1.09335C280.182 0.815838 280.942 0.688621 281.703 0.719246C282.464 0.688836 283.224 0.81622 283.933 1.09372C284.642 1.37123 285.287 1.79264 285.825 2.33145C286.364 2.87026 286.786 3.51508 287.063 4.22489C287.341 4.9347 287.468 5.69407 287.437 6.45558C287.437 7.97675 286.833 9.43589 285.758 10.5117C284.683 11.5874 283.224 12.1919 281.703 12.1923C280.182 12.1931 278.723 11.5899 277.647 10.515C276.57 9.44019 275.965 7.98178 275.963 6.46047L275.966 6.45558Z" fill="#F6F8FF"/>
</svg>