<svg width="613" height="1032" viewBox="0 0 613 1032" fill="none" xmlns="http://www.w3.org/2000/svg">
<g clip-path="url(#clip0_14_7040)">
<path d="M55.9199 582.53C62.3099 592.96 71.2499 601.11 78.4599 608.13C82.3699 611.94 97.9999 628.87 91.1199 639.13C88.9899 642.3 85.8499 645.36 81.3499 646.14" stroke="#00DBF7" stroke-width="1.25" stroke-miterlimit="10"/>
<path d="M302.36 582.64C301.98 604.33 304.68 625.86 307.85 647.42C308.84 654.17 310.19 660.92 313.01 667.35C320.46 684.35 337.56 697.89 346.15 714.57C346.15 714.57 365.63 785.59 326.98 785.59H316.88C316.72 785.59 316.6 785.47 316.64 785.33C317.95 780.32 335.37 706.5 230.41 684C140.9 664.81 116.83 593.18 116.83 593.18" stroke="#00DBF7" stroke-width="1.25" stroke-miterlimit="10"/>
<path d="M157.69 582.64C157.69 588.42 160.23 594.4 167.22 597.26C174.21 600.12 182.44 600.32 190.34 600.56C205.61 601.02 220.86 601.86 236.05 603.07C244.64 603.75 254.16 604.95 259.46 610.24C263.81 614.58 264.07 620.51 264.15 626C264.31 637.15 264.46 648.29 264.62 659.44C264.65 661.85 264.71 664.35 265.99 666.54C267.27 668.74 270.13 670.58 273.23 670.35C275.92 670.15 278.03 668.53 279.77 666.93C291.27 656.37 297.75 642.42 311.95 634.07C324.91 626.45 334.22 626.52 346.07 616.42C357.92 606.32 361.86 593.61 361.86 582.66" stroke="#00DBF7" stroke-width="1.25" stroke-miterlimit="10"/>
<path d="M316.98 785.58C263.65 785.58 250.53 765.67 239.92 748.83C234.51 740.24 231.8 731.79 228.04 722.96C219.49 702.86 200.68 692.11 182.28 689.28C172.3 687.75 162.16 687.63 152.27 685.45C131.39 680.84 112.78 670.93 94.8201 657.71C82.6501 648.75 70.0101 636.21 60.8001 623.1C52.4001 611.14 45.0601 596.73 41.1201 582.15" stroke="#00DBF7" stroke-width="1.25" stroke-miterlimit="10"/>
<path d="M349.9 763.69C349.9 763.69 343.32 764.75 339.93 757.93C335.76 749.53 341.67 728.5 341.67 728.5C343.7 721.13 346.04 713.5 350.9 708.23C366.28 691.53 426.55 706.03 442.04 689.46C456.56 673.92 457.84 658.95 468.32 632.74C475.39 615.06 492.53 609.89 508.78 606.28C520.71 603.63 556.31 598.74 564.59 594.59C569.33 592.22 573.37 588.52 573.88 582.54" stroke="#00DBF7" stroke-width="1.25" stroke-miterlimit="10"/>
<path d="M98.5498 582.53C99.5898 602.49 104.54 622.42 113.19 641.23C121.78 659.92 140.13 680.93 165.53 687.42" stroke="#00DBF7" stroke-width="1.25" stroke-miterlimit="10"/>
<path d="M349.82 763.83C353.69 749.07 364.99 730.02 372.11 720.94C381.34 709.17 398.31 700.98 422.94 697.15" stroke="#00DBF7" stroke-width="1.25" stroke-miterlimit="10"/>
<path d="M409.21 582.64C407.36 598.72 394.46 612.67 373.69 620.69C336.5 635.04 313.01 646.55 313.01 667.35" stroke="#00DBF7" stroke-width="1.25" stroke-miterlimit="10"/>
<path d="M258.81 582.67C258.81 582.67 261.09 593.33 281.24 606.49C305.56 622.38 307.51 645.03 307.51 645.03" stroke="#00DBF7" stroke-width="1.25" stroke-miterlimit="10"/>
<path d="M391.45 610.96C391.45 610.96 324.94 664.99 322.78 751.05C322.78 751.05 323.75 766.24 313.01 767.13C304.41 767.84 290.65 763.51 279.26 742.23C267.87 720.96 270.2 665.05 234.28 645.82C198.35 626.58 195.18 582.64 195.18 582.64" stroke="#00DBF7" stroke-width="1.25" stroke-miterlimit="10"/>
<path d="M266.61 695.63C260.67 688.58 251.55 672.43 214.36 662.91C183.86 655.11 119.93 662.29 98.5498 582.53" stroke="#00DBF7" stroke-width="1.25" stroke-miterlimit="10"/>
<path d="M487.82 612.9C467 609.5 414.77 605.97 403.79 653.45C393.58 694.07 354.24 675.99 344.12 671.39" stroke="#00DBF7" stroke-width="1.25" stroke-miterlimit="10"/>
<path d="M269.92 709.39C257.8 724.9 249.4 740.44 246.16 758.4" stroke="#00DBF7" stroke-width="1.25" stroke-miterlimit="10"/>
<path d="M298.57 645.04C302.11 651.42 301.81 659.26 299.59 665.99C295.4 678.68 285.91 689.74 276.76 700.85" stroke="#00DBF7" stroke-width="1.25" stroke-miterlimit="10"/>
<path d="M114.37 582.39C115.66 596 120.32 601.04 130.03 607.18C139.74 613.32 152 616.55 164.29 618.45C197.18 623.53 231.98 619.92 264.15 626.8" stroke="#00DBF7" stroke-width="1.25" stroke-miterlimit="10"/>
<path d="M630.37 582.81H128.89" stroke="#F8F8F7" stroke-width="1.25" stroke-miterlimit="10"/>
<path fill-rule="evenodd" clip-rule="evenodd" d="M90.0701 575.38L90.0601 566.99H71.6401V575.38H84.4001H90.0701Z" stroke="#F8F8F7" stroke-width="1.25" stroke-miterlimit="10"/>
<path fill-rule="evenodd" clip-rule="evenodd" d="M80.8602 567L80.8502 558.6H62.4302V566.99L75.1902 567H80.8602Z" stroke="#F8F8F7" stroke-width="1.25" stroke-miterlimit="10"/>
<path d="M71.6397 575.38L71.6297 566.99H53.2197V574.28" stroke="#F8F8F7" stroke-width="1.25" stroke-miterlimit="10"/>
<path d="M96.3701 575.07V564.88H117.55V571.75" stroke="#F8F8F7" stroke-width="1.25" stroke-miterlimit="10"/>
<path d="M117.55 558.28H99.1401V564.88H117.55V558.28Z" stroke="#F8F8F7" stroke-width="1.25" stroke-miterlimit="10"/>
<path d="M114.6 553.77H106.4V558.27H114.6V553.77Z" stroke="#F8F8F7" stroke-width="1.25" stroke-miterlimit="10"/>
<path d="M40.36 581.71L34.77 568.72H45.43C45.43 568.72 49.72 575.38 56.89 575.38H103.94L106.18 571.75H117.57C117.57 571.75 118.2 577.67 116.96 582.4" stroke="#F8F8F7" stroke-width="1.25" stroke-miterlimit="10"/>
<path d="M128.91 582.81C128.2 582.81 126.2 581.48 126.2 581.48C125.98 581.33 125.69 581.33 125.46 581.48L124.34 582.21C123.38 582.84 122.13 582.84 121.17 582.21L120.05 581.48C119.83 581.33 119.54 581.33 119.31 581.48L118.19 582.21C117.23 582.84 115.98 582.84 115.02 582.21L113.9 581.48C113.68 581.33 113.39 581.33 113.16 581.48L112.04 582.21C111.08 582.84 109.83 582.84 108.87 582.21L107.75 581.48C107.53 581.33 107.24 581.33 107.01 581.48L105.89 582.21C104.93 582.84 103.68 582.84 102.72 582.21L101.6 581.48C101.38 581.33 101.09 581.33 100.86 581.48L99.7401 582.21C98.7801 582.84 97.5301 582.84 96.5701 582.21L95.4501 581.48C95.2301 581.33 94.9401 581.33 94.7101 581.48L93.5901 582.21C92.6301 582.84 91.3801 582.84 90.4201 582.21L89.2801 581.47C89.0601 581.33 88.7801 581.32 88.5601 581.46L87.3301 582.19C86.4101 582.74 85.2701 582.74 84.3501 582.19L83.1201 581.46C82.9001 581.33 82.6201 581.33 82.4001 581.47L81.2601 582.21C80.3001 582.84 79.0501 582.84 78.0901 582.21L76.9701 581.48C76.7501 581.33 76.4601 581.33 76.2301 581.48L75.1101 582.21C74.1501 582.84 72.9001 582.84 71.9401 582.21L70.8201 581.48C70.6001 581.33 70.3101 581.33 70.0801 581.48L68.9601 582.21C68.0001 582.84 66.7501 582.84 65.7901 582.21L64.6701 581.48C64.4501 581.33 64.1601 581.33 63.9301 581.48L62.8101 582.21C61.8501 582.84 60.6001 582.84 59.6401 582.21L58.5201 581.48C58.3001 581.33 58.0101 581.33 57.7801 581.48L56.6401 582.22C55.6801 582.84 54.4501 582.85 53.4901 582.23L52.3201 581.48C52.0901 581.34 51.8101 581.34 51.5801 581.48L50.5001 582.19C49.5301 582.83 48.2801 582.83 47.3101 582.2L46.2001 581.48C45.9801 581.33 45.6901 581.33 45.4601 581.48L44.3401 582.21C43.3801 582.84 42.1301 582.84 41.1701 582.21L40.0501 581.48C39.8301 581.33 39.5401 581.33 39.3101 581.48L38.1901 582.21C37.2301 582.84 35.9801 582.84 35.0201 582.21L33.9001 581.48C33.6801 581.33 33.3901 581.33 33.1601 581.48C33.1601 581.48 31.1201 582.81 30.3701 582.81" stroke="#F8F8F7" stroke-width="1.25" stroke-miterlimit="10"/>
<path d="M285.87 582.8H321.19V476.48H285.87V582.8Z" stroke="#F8F8F7" stroke-width="1.25" stroke-miterlimit="10"/>
<path d="M220.88 524.25V476.79H185.45V567.42" stroke="#F8F8F7" stroke-width="1.25" stroke-miterlimit="10"/>
<path d="M244.11 570.18V524.25H208.08V582.81" stroke="#F8F8F7" stroke-width="1.25" stroke-miterlimit="10"/>
<path d="M230.43 524.25V449.54L266.08 420.66" stroke="#F8F8F7" stroke-width="1.25" stroke-miterlimit="10"/>
<path d="M266.08 397.66V582.81" stroke="#F8F8F7" stroke-width="1.25" stroke-miterlimit="10"/>
<path d="M416.99 582.81H437.52V570.56L427.61 563.57L416.99 570.56V582.81Z" stroke="#F8F8F7" stroke-width="1.25" stroke-miterlimit="10"/>
<path d="M442.1 575.74C442.1 577.68 443.19 578.11 444.52 578.11C445.86 578.11 446.94 577.68 446.94 575.74C446.94 573.8 445.85 569.85 444.52 569.85C443.18 569.85 442.1 573.8 442.1 575.74Z" stroke="#F8F8F7" stroke-width="1.25" stroke-miterlimit="10"/>
<path d="M444.52 578.11V583.32" stroke="#F8F8F7" stroke-width="1.25" stroke-miterlimit="10"/>
<path d="M449.37 578.41C449.37 579.67 450.07 579.94 450.94 579.94C451.81 579.94 452.51 579.66 452.51 578.41C452.51 577.15 451.81 574.59 450.94 574.59C450.07 574.59 449.37 577.15 449.37 578.41Z" stroke="#F8F8F7" stroke-width="1.25" stroke-miterlimit="10"/>
<path d="M450.94 580.13V583.32" stroke="#F8F8F7" stroke-width="1.25" stroke-miterlimit="10"/>
<path d="M310.87 476.39V450.59H275.55V582.81" stroke="#F8F8F7" stroke-width="1.25" stroke-miterlimit="10"/>
<path d="M326.8 556.09H411.77" stroke="#F8F8F7" stroke-width="1.25" stroke-miterlimit="10"/>
<path d="M330.51 561.66H408.15" stroke="#F8F8F7" stroke-width="1.25" stroke-miterlimit="10"/>
<path d="M330.51 556.57V583.31" stroke="#F8F8F7" stroke-width="1.25" stroke-miterlimit="10"/>
<path d="M408.15 556.57V583.31" stroke="#F8F8F7" stroke-width="1.25" stroke-miterlimit="10"/>
<path d="M397.06 561.66V583.31" stroke="#F8F8F7" stroke-width="1.25" stroke-miterlimit="10"/>
<path d="M385.97 561.66V583.31" stroke="#F8F8F7" stroke-width="1.25" stroke-miterlimit="10"/>
<path d="M374.87 561.19V582.85" stroke="#F8F8F7" stroke-width="1.25" stroke-miterlimit="10"/>
<path d="M363.78 561.19V582.85" stroke="#F8F8F7" stroke-width="1.25" stroke-miterlimit="10"/>
<path d="M352.69 561.19V582.85" stroke="#F8F8F7" stroke-width="1.25" stroke-miterlimit="10"/>
<path d="M341.6 561.19V582.85" stroke="#F8F8F7" stroke-width="1.25" stroke-miterlimit="10"/>
<path d="M347.85 536.86V556.09" stroke="#F8F8F7" stroke-width="1.25" stroke-miterlimit="10"/>
<path d="M339.78 536.86V556.09" stroke="#F8F8F7" stroke-width="1.25" stroke-miterlimit="10"/>
<path d="M351.94 536.86L354.75 526.27H333.05L335.85 536.86H351.94Z" stroke="#F8F8F7" stroke-width="1.25" stroke-miterlimit="10"/>
<path d="M348.44 526.27L349.19 521.37H338.34L339.09 526.27H348.44Z" stroke="#F8F8F7" stroke-width="1.25" stroke-miterlimit="10"/>
<path d="M343.77 509.55V521.37" stroke="#F8F8F7" stroke-width="1.25" stroke-miterlimit="10"/>
<path d="M239.74 581.31C240.695 581.31 241.47 580.535 241.47 579.58C241.47 578.625 240.695 577.85 239.74 577.85C238.784 577.85 238.01 578.625 238.01 579.58C238.01 580.535 238.784 581.31 239.74 581.31Z" stroke="#F8F8F7" stroke-width="1.25" stroke-miterlimit="10"/>
<path d="M251.32 581.31C252.275 581.31 253.05 580.535 253.05 579.58C253.05 578.625 252.275 577.85 251.32 577.85C250.364 577.85 249.59 578.625 249.59 579.58C249.59 580.535 250.364 581.31 251.32 581.31Z" stroke="#F8F8F7" stroke-width="1.25" stroke-miterlimit="10"/>
<path d="M250.92 574.08H247.02C246.65 574.08 246.36 573.78 246.36 573.42V570.19" stroke="#F8F8F7" stroke-width="1.25" stroke-miterlimit="10"/>
<path d="M238.01 579.58H236.74C236.42 579.58 236.17 579.32 236.17 579.01V570.76C236.17 570.44 236.43 570.19 236.74 570.19H248.73C248.95 570.19 249.15 570.32 249.25 570.52L250.86 573.93C250.91 574.05 251.01 574.14 251.12 574.2L253.64 575.47C253.83 575.57 253.96 575.77 253.96 575.98V579.02C253.96 579.34 253.7 579.59 253.39 579.59H253.05" stroke="#F8F8F7" stroke-width="1.25" stroke-miterlimit="10"/>
<path d="M249.59 579.58H241.46" stroke="#F8F8F7" stroke-width="1.25" stroke-miterlimit="10"/>
<path fill-rule="evenodd" clip-rule="evenodd" d="M198.46 579.85C198.46 580.95 197.56 581.85 196.46 581.85C195.36 581.85 194.46 580.95 194.46 579.85C194.46 578.75 195.36 577.85 196.46 577.85C197.56 577.85 198.46 578.75 198.46 579.85Z" stroke="#F8F8F7" stroke-width="1.25" stroke-miterlimit="10"/>
<path fill-rule="evenodd" clip-rule="evenodd" d="M177.48 579.85C177.48 580.95 176.58 581.85 175.48 581.85C174.38 581.85 173.48 580.95 173.48 579.85C173.48 578.75 174.38 577.85 175.48 577.85C176.58 577.85 177.48 578.75 177.48 579.85Z" stroke="#F8F8F7" stroke-width="1.25" stroke-miterlimit="10"/>
<path fill-rule="evenodd" clip-rule="evenodd" d="M171.79 579.85C171.79 580.95 170.89 581.85 169.79 581.85C168.69 581.85 167.79 580.95 167.79 579.85C167.79 578.75 168.69 577.85 169.79 577.85C170.89 577.85 171.79 578.75 171.79 579.85Z" stroke="#F8F8F7" stroke-width="1.25" stroke-miterlimit="10"/>
<path d="M190.29 570.29H195.06C195.3 570.29 195.59 570.47 195.65 570.7L196.56 573.89L200.43 574.93C200.55 574.93 200.64 575.04 200.64 575.15V580.01" stroke="#F8F8F7" stroke-width="1.25" stroke-miterlimit="10"/>
<path d="M194.47 579.97L189.42 579.95" stroke="#F8F8F7" stroke-width="1.25" stroke-miterlimit="10"/>
<path d="M198.29 579.96L201.67 579.95" stroke="#F8F8F7" stroke-width="1.25" stroke-miterlimit="10"/>
<path d="M177.48 579.96L179.76 579.95" stroke="#F8F8F7" stroke-width="1.25" stroke-miterlimit="10"/>
<path d="M172.11 579.96L173.49 579.95" stroke="#F8F8F7" stroke-width="1.25" stroke-miterlimit="10"/>
<path d="M184.05 579.96L185.43 579.95" stroke="#F8F8F7" stroke-width="1.25" stroke-miterlimit="10"/>
<path fill-rule="evenodd" clip-rule="evenodd" d="M189.42 579.85C189.42 580.95 188.52 581.85 187.42 581.85C186.32 581.85 185.42 580.95 185.42 579.85C185.42 578.75 186.32 577.85 187.42 577.85C188.52 577.85 189.42 578.75 189.42 579.85Z" stroke="#F8F8F7" stroke-width="1.25" stroke-miterlimit="10"/>
<path fill-rule="evenodd" clip-rule="evenodd" d="M183.75 579.85C183.75 580.95 182.85 581.85 181.75 581.85C180.65 581.85 179.75 580.95 179.75 579.85C179.75 578.75 180.65 577.85 181.75 577.85C182.85 577.85 183.75 578.75 183.75 579.85Z" stroke="#F8F8F7" stroke-width="1.25" stroke-miterlimit="10"/>
<path d="M193.54 570.73V573.85H196.56" stroke="#F8F8F7" stroke-width="1.25" stroke-miterlimit="10"/>
<path d="M198.75 576.61H200.85" stroke="#F8F8F7" stroke-width="1.25" stroke-miterlimit="10"/>
<path d="M190.22 579.95L190.21 567.6H165.58V579.85H167.8" stroke="#F8F8F7" stroke-width="1.25" stroke-miterlimit="10"/>
<path fill-rule="evenodd" clip-rule="evenodd" d="M198.46 579.85C198.46 580.95 197.56 581.85 196.46 581.85C195.36 581.85 194.46 580.95 194.46 579.85C194.46 578.75 195.36 577.85 196.46 577.85C197.56 577.85 198.46 578.75 198.46 579.85Z" stroke="#F8F8F7" stroke-width="1.25" stroke-miterlimit="10"/>
<path fill-rule="evenodd" clip-rule="evenodd" d="M177.48 579.85C177.48 580.95 176.58 581.85 175.48 581.85C174.38 581.85 173.48 580.95 173.48 579.85C173.48 578.75 174.38 577.85 175.48 577.85C176.58 577.85 177.48 578.75 177.48 579.85Z" stroke="#F8F8F7" stroke-width="1.25" stroke-miterlimit="10"/>
<path fill-rule="evenodd" clip-rule="evenodd" d="M171.79 579.85C171.79 580.95 170.89 581.85 169.79 581.85C168.69 581.85 167.79 580.95 167.79 579.85C167.79 578.75 168.69 577.85 169.79 577.85C170.89 577.85 171.79 578.75 171.79 579.85Z" stroke="#F8F8F7" stroke-width="1.25" stroke-miterlimit="10"/>
<path d="M190.29 570.29H195.06C195.3 570.29 195.59 570.47 195.65 570.7L196.56 573.89L200.43 574.93C200.55 574.93 200.64 575.04 200.64 575.15V580.01" stroke="#F8F8F7" stroke-width="1.25" stroke-miterlimit="10"/>
<path d="M194.47 579.97L189.42 579.95" stroke="#F8F8F7" stroke-width="1.25" stroke-miterlimit="10"/>
<path d="M198.29 579.96L201.67 579.95" stroke="#F8F8F7" stroke-width="1.25" stroke-miterlimit="10"/>
<path d="M177.48 579.96L179.76 579.95" stroke="#F8F8F7" stroke-width="1.25" stroke-miterlimit="10"/>
<path d="M172.11 579.96L173.49 579.95" stroke="#F8F8F7" stroke-width="1.25" stroke-miterlimit="10"/>
<path d="M184.05 579.96L185.43 579.95" stroke="#F8F8F7" stroke-width="1.25" stroke-miterlimit="10"/>
<path fill-rule="evenodd" clip-rule="evenodd" d="M189.42 579.85C189.42 580.95 188.52 581.85 187.42 581.85C186.32 581.85 185.42 580.95 185.42 579.85C185.42 578.75 186.32 577.85 187.42 577.85C188.52 577.85 189.42 578.75 189.42 579.85Z" stroke="#F8F8F7" stroke-width="1.25" stroke-miterlimit="10"/>
<path fill-rule="evenodd" clip-rule="evenodd" d="M183.75 579.85C183.75 580.95 182.85 581.85 181.75 581.85C180.65 581.85 179.75 580.95 179.75 579.85C179.75 578.75 180.65 577.85 181.75 577.85C182.85 577.85 183.75 578.75 183.75 579.85Z" stroke="#F8F8F7" stroke-width="1.25" stroke-miterlimit="10"/>
<path d="M193.54 570.73V573.85H196.56" stroke="#F8F8F7" stroke-width="1.25" stroke-miterlimit="10"/>
<path d="M198.75 576.61H200.85" stroke="#F8F8F7" stroke-width="1.25" stroke-miterlimit="10"/>
<path d="M190.22 579.95L190.21 567.6H165.58V579.85H167.8" stroke="#F8F8F7" stroke-width="1.25" stroke-miterlimit="10"/>
<path d="M150.33 572.12H138.15" stroke="#F8F8F7" stroke-width="1.25" stroke-miterlimit="10"/>
<path d="M118.27 544.41L138.21 533.46L154.7 539.25" stroke="#F8F8F7" stroke-width="1.25" stroke-miterlimit="10"/>
<path d="M138.15 533.46V582.4" stroke="#F8F8F7" stroke-width="1.25" stroke-miterlimit="10"/>
<path d="M150.33 537.71V582.4" stroke="#F8F8F7" stroke-width="1.25" stroke-miterlimit="10"/>
<path d="M138.15 567.42L149.67 554.59L138.15 544.32" stroke="#F8F8F7" stroke-width="1.25" stroke-miterlimit="10"/>
<path d="M100.6 544.41H163" stroke="#F8F8F7" stroke-width="1.25" stroke-miterlimit="10"/>
<path d="M163 539.25H154.7V544.42H163V539.25Z" stroke="#F8F8F7" stroke-width="1.25" stroke-miterlimit="10"/>
<path d="M-17.3701 582.81H30.3099" stroke="#F8F8F7" stroke-width="1.25" stroke-miterlimit="10"/>
<path d="M400.99 538.36C400.99 535.08 398.33 532.41 395.04 532.41C394.3 532.41 393.6 532.55 392.95 532.79C391.33 531.03 389.21 529.95 386.88 529.95C383.17 529.95 379.99 532.64 378.54 536.51C378.12 536.38 377.68 536.3 377.21 536.3C374.83 536.3 372.9 538.08 372.9 540.27H400.67C400.87 539.67 400.99 539.03 400.99 538.35V538.36Z" stroke="#F8F8F7" stroke-width="1.25" stroke-miterlimit="10"/>
<path d="M400.67 540.27H423.31C422.97 536.16 419.53 532.92 415.33 532.92C415.17 532.92 415.02 532.93 414.87 532.94C414.19 529.2 410.93 526.36 406.99 526.36C402.72 526.36 399.23 529.7 399 533.92" stroke="#F8F8F7" stroke-width="1.25" stroke-miterlimit="10"/>
<path d="M375.39 503.19L374.26 507.24C374.23 507.34 374.32 507.43 374.42 507.4L376.14 506.93C376.31 506.88 376.47 506.8 376.6 506.67L382.35 501.27" stroke="#F8F8F7" stroke-width="1.25" stroke-miterlimit="10"/>
<path d="M379.23 504.24L386.87 502.13C386.87 502.13 387.6 501.93 388.35 501.69C389.19 501.41 389.88 500.97 390.29 500.52C390.88 499.88 391.35 498.9 390.41 498.23C388.78 497.18 387.7 497.28 386.29 497.64C385.82 497.7 371.6 501.69 371.6 501.69C371.54 501.71 371.48 501.69 371.43 501.66L367.61 498.27C367.61 498.27 367.52 498.23 367.47 498.25L365.81 498.71C365.75 498.73 365.71 498.79 365.73 498.86L367.09 503.78C367.11 503.84 367.09 503.89 367.04 503.93L365.78 505.01C365.71 505.07 365.68 505.17 365.7 505.26L365.87 505.87C365.9 505.97 365.99 506.05 366.1 506.05L371.3 506.33C371.47 506.33 371.63 506.33 371.79 506.28L374.63 505.5" stroke="#F8F8F7" stroke-width="1.25" stroke-miterlimit="10"/>
<path d="M558.91 568.67V567.14C558.91 567 559.02 566.89 559.16 566.89H570.12C570.26 566.89 570.37 567 570.37 567.14V568.67" stroke="#F8F8F7" stroke-width="1.25" stroke-miterlimit="10"/>
<path d="M576.87 569.09V571.36C576.87 571.36 576.83 571.97 577.69 571.97H581.49L584.78 574.05V577.16H587.52V580.67H583.55L582.4 579.31H571.71H563.63H552.94L551.79 580.67H547.59V569.09H580.84C581.32 569.09 581.48 569.23 581.48 569.75V571.97" stroke="#F8F8F7" stroke-width="1.25" stroke-miterlimit="10"/>
<path d="M587.53 577.68V575.01" stroke="#F8F8F7" stroke-width="1.25" stroke-miterlimit="10"/>
<path d="M547.61 573.36H570.68L574.01 579.35" stroke="#F8F8F7" stroke-width="1.25" stroke-miterlimit="10"/>
<path d="M502.57 569.17H484.34V579.72H502.57V569.17Z" stroke="#F8F8F7" stroke-width="1.25" stroke-miterlimit="10"/>
<path d="M484.34 569.17H466.11V579.72H484.34V569.17Z" stroke="#F8F8F7" stroke-width="1.25" stroke-miterlimit="10"/>
<path d="M543.33 569.16H525.1V579.71H543.33V569.16Z" stroke="#F8F8F7" stroke-width="1.25" stroke-miterlimit="10"/>
<path d="M525.1 569.16H506.87V579.71H525.1V569.16Z" stroke="#F8F8F7" stroke-width="1.25" stroke-miterlimit="10"/>
<path d="M535.8 580.17C535.8 581.06 535.08 581.78 534.19 581.78C533.3 581.78 532.58 581.06 532.58 580.17" stroke="#F8F8F7" stroke-width="1.25" stroke-miterlimit="10"/>
<path d="M530.92 580.17C530.92 581.06 530.2 581.78 529.31 581.78C528.42 581.78 527.7 581.06 527.7 580.17" stroke="#F8F8F7" stroke-width="1.25" stroke-miterlimit="10"/>
<path d="M540.74 580.17C540.74 581.06 540.02 581.78 539.13 581.78C538.24 581.78 537.52 581.06 537.52 580.17" stroke="#F8F8F7" stroke-width="1.25" stroke-miterlimit="10"/>
<path d="M517.57 580.17C517.57 581.06 516.85 581.78 515.96 581.78C515.07 581.78 514.35 581.06 514.35 580.17" stroke="#F8F8F7" stroke-width="1.25" stroke-miterlimit="10"/>
<path d="M512.69 580.17C512.69 581.06 511.97 581.78 511.08 581.78C510.19 581.78 509.47 581.06 509.47 580.17" stroke="#F8F8F7" stroke-width="1.25" stroke-miterlimit="10"/>
<path d="M522.51 580.17C522.51 581.06 521.79 581.78 520.9 581.78C520.01 581.78 519.29 581.06 519.29 580.17" stroke="#F8F8F7" stroke-width="1.25" stroke-miterlimit="10"/>
<path d="M495.04 580.17C495.04 581.06 494.32 581.78 493.43 581.78C492.54 581.78 491.82 581.06 491.82 580.17" stroke="#F8F8F7" stroke-width="1.25" stroke-miterlimit="10"/>
<path d="M490.15 580.17C490.15 581.06 489.43 581.78 488.54 581.78C487.65 581.78 486.93 581.06 486.93 580.17" stroke="#F8F8F7" stroke-width="1.25" stroke-miterlimit="10"/>
<path d="M499.97 580.17C499.97 581.06 499.25 581.78 498.36 581.78C497.47 581.78 496.75 581.06 496.75 580.17" stroke="#F8F8F7" stroke-width="1.25" stroke-miterlimit="10"/>
<path d="M476.8 580.17C476.8 581.06 476.08 581.78 475.19 581.78C474.3 581.78 473.58 581.06 473.58 580.17" stroke="#F8F8F7" stroke-width="1.25" stroke-miterlimit="10"/>
<path d="M471.92 580.17C471.92 581.06 471.2 581.78 470.31 581.78C469.42 581.78 468.7 581.06 468.7 580.17" stroke="#F8F8F7" stroke-width="1.25" stroke-miterlimit="10"/>
<path d="M481.74 580.17C481.74 581.06 481.02 581.78 480.13 581.78C479.24 581.78 478.52 581.06 478.52 580.17" stroke="#F8F8F7" stroke-width="1.25" stroke-miterlimit="10"/>
<path d="M547.68 579.71H464.33" stroke="#F8F8F7" stroke-width="1.25" stroke-miterlimit="10"/>
<path d="M582.94 574.69H584.79V577.16H582.54V575.09C582.54 574.87 582.72 574.69 582.94 574.69Z" stroke="#F8F8F7" stroke-width="1.25" stroke-miterlimit="10"/>
<path d="M556.52 579.49C556.61 579.69 556.65 579.92 556.65 580.15C556.65 581.09 555.89 581.84 554.96 581.84C554.03 581.84 553.27 581.08 553.27 580.15V579.8" stroke="#F8F8F7" stroke-width="1.25" stroke-miterlimit="10"/>
<path d="M561.62 579.49C561.71 579.69 561.75 579.92 561.75 580.15C561.75 581.09 560.99 581.84 560.06 581.84C559.13 581.84 558.37 581.08 558.37 580.15C558.37 579.9 558.42 579.67 558.52 579.46" stroke="#F8F8F7" stroke-width="1.25" stroke-miterlimit="10"/>
<path d="M566.73 579.49C566.82 579.69 566.86 579.92 566.86 580.15C566.86 581.09 566.1 581.84 565.17 581.84C564.24 581.84 563.48 581.08 563.48 580.15C563.48 579.9 563.53 579.67 563.63 579.46" stroke="#F8F8F7" stroke-width="1.25" stroke-miterlimit="10"/>
<path d="M571.83 579.49C571.92 579.69 571.96 579.92 571.96 580.15C571.96 581.09 571.2 581.84 570.27 581.84C569.34 581.84 568.58 581.08 568.58 580.15C568.58 579.9 568.63 579.67 568.73 579.46" stroke="#F8F8F7" stroke-width="1.25" stroke-miterlimit="10"/>
<path d="M576.94 579.49C577.03 579.69 577.07 579.92 577.07 580.15C577.07 581.09 576.31 581.84 575.38 581.84C574.45 581.84 573.69 581.08 573.69 580.15C573.69 579.9 573.74 579.67 573.84 579.46" stroke="#F8F8F7" stroke-width="1.25" stroke-miterlimit="10"/>
<path d="M578.93 579.45C578.83 579.66 578.78 579.9 578.78 580.14C578.78 581.08 579.54 581.83 580.47 581.83C581.4 581.83 582.16 581.07 582.16 580.14V579.56" stroke="#F8F8F7" stroke-width="1.25" stroke-miterlimit="10"/>
<path d="M130.88 271.92V250.92H143.87V252.99H133.4V260.31H142.97V262.35H133.4V269.85H143.87V271.92H130.88Z" fill="#F8F8F7"/>
<path d="M147.65 271.92V257.04H149.93L150.08 259.71C150.56 258.77 151.25 258.03 152.15 257.49C153.05 256.95 154.07 256.68 155.21 256.68C156.97 256.68 158.38 257.22 159.42 258.29C160.46 259.36 161 261 161 263.22V271.92H158.48V263.49C158.48 260.39 157.2 258.84 154.64 258.84C153.36 258.84 152.3 259.3 151.45 260.24C150.6 261.17 150.17 262.5 150.17 264.22V271.93H147.65V271.92Z" fill="#F8F8F7"/>
<path d="M169.76 272.28C168.52 272.28 167.49 272.07 166.67 271.65C165.85 271.23 165.24 270.67 164.84 269.97C164.44 269.27 164.24 268.51 164.24 267.69C164.24 266.17 164.82 265 165.98 264.18C167.14 263.36 168.72 262.95 170.72 262.95H174.74V262.77C174.74 261.47 174.4 260.49 173.72 259.81C173.04 259.14 172.13 258.81 170.99 258.81C170.01 258.81 169.16 259.06 168.45 259.54C167.74 260.03 167.3 260.75 167.12 261.69H164.54C164.64 260.61 165.01 259.7 165.64 258.96C166.27 258.22 167.05 257.65 167.99 257.27C168.93 256.88 169.93 256.68 170.99 256.68C173.07 256.68 174.64 257.24 175.69 258.35C176.74 259.46 177.27 260.94 177.27 262.78V271.93H175.02L174.87 269.26C174.45 270.1 173.83 270.82 173.03 271.41C172.22 272 171.13 272.29 169.78 272.29L169.76 272.28ZM170.15 270.15C171.11 270.15 171.94 269.9 172.62 269.4C173.31 268.9 173.84 268.25 174.2 267.45C174.56 266.65 174.74 265.81 174.74 264.93V264.9H170.93C169.45 264.9 168.4 265.15 167.8 265.67C167.19 266.18 166.88 266.82 166.88 267.57C166.88 268.32 167.16 268.98 167.73 269.45C168.3 269.92 169.11 270.16 170.15 270.16V270.15Z" fill="#F8F8F7"/>
<path d="M188.99 272.28C187.77 272.28 186.68 272.03 185.74 271.53C184.79 271.03 184.06 270.33 183.56 269.43L183.32 271.92H181.04V250.32H183.56V259.5C184.04 258.78 184.73 258.13 185.62 257.55C186.51 256.97 187.64 256.68 189.02 256.68C190.5 256.68 191.79 257.02 192.89 257.7C193.99 258.38 194.85 259.31 195.46 260.49C196.07 261.67 196.38 263.01 196.38 264.51C196.38 266.01 196.07 267.34 195.46 268.52C194.85 269.69 193.99 270.61 192.88 271.28C191.77 271.95 190.47 272.28 189 272.28H188.99ZM188.72 270.09C189.72 270.09 190.6 269.86 191.36 269.38C192.12 268.91 192.72 268.26 193.16 267.42C193.6 266.58 193.82 265.6 193.82 264.48C193.82 263.36 193.6 262.38 193.16 261.54C192.72 260.7 192.12 260.04 191.36 259.57C190.6 259.1 189.72 258.87 188.72 258.87C187.72 258.87 186.84 259.11 186.08 259.57C185.32 260.04 184.72 260.69 184.28 261.54C183.84 262.38 183.62 263.36 183.62 264.48C183.62 265.6 183.84 266.58 184.28 267.42C184.72 268.26 185.32 268.92 186.08 269.38C186.84 269.85 187.72 270.09 188.72 270.09Z" fill="#F8F8F7"/>
<path d="M199.88 271.92V250.32H202.4V271.92H199.88Z" fill="#F8F8F7"/>
<path d="M208.07 253.74C207.57 253.74 207.15 253.57 206.82 253.25C206.49 252.92 206.32 252.5 206.32 252C206.32 251.5 206.49 251.12 206.82 250.8C207.15 250.48 207.57 250.32 208.07 250.32C208.57 250.32 208.96 250.48 209.3 250.8C209.64 251.12 209.81 251.52 209.81 252C209.81 252.48 209.64 252.92 209.3 253.25C208.96 253.58 208.55 253.74 208.07 253.74ZM206.81 271.92V257.04H209.33V271.92H206.81Z" fill="#F8F8F7"/>
<path d="M213.71 271.92V257.04H215.99L216.14 259.71C216.62 258.77 217.31 258.03 218.21 257.49C219.11 256.95 220.13 256.68 221.27 256.68C223.03 256.68 224.44 257.22 225.48 258.29C226.52 259.36 227.06 261 227.06 263.22V271.92H224.54V263.49C224.54 260.39 223.26 258.84 220.7 258.84C219.42 258.84 218.36 259.3 217.51 260.24C216.66 261.17 216.23 262.5 216.23 264.22V271.93H213.71V271.92Z" fill="#F8F8F7"/>
<path d="M236.75 267.24C235.91 267.24 235.14 267.13 234.44 266.91L232.94 268.32C233.16 268.48 233.43 268.62 233.76 268.73C234.09 268.84 234.57 268.94 235.19 269.03C235.81 269.12 236.68 269.22 237.8 269.32C239.8 269.46 241.23 269.92 242.09 270.7C242.95 271.48 243.38 272.5 243.38 273.76C243.38 274.62 243.14 275.44 242.67 276.22C242.2 277 241.48 277.64 240.51 278.14C239.54 278.64 238.3 278.89 236.78 278.89C235.44 278.89 234.25 278.71 233.21 278.37C232.17 278.02 231.36 277.49 230.78 276.78C230.2 276.07 229.91 275.18 229.91 274.09C229.91 273.53 230.06 272.92 230.36 272.28C230.66 271.63 231.22 271.01 232.04 270.43C231.6 270.25 231.22 270.05 230.92 269.85C230.61 269.64 230.32 269.41 230.06 269.14V268.45L232.61 265.93C231.43 264.93 230.84 263.61 230.84 261.97C230.84 260.99 231.07 260.1 231.53 259.3C231.99 258.5 232.66 257.86 233.54 257.39C234.42 256.92 235.49 256.68 236.75 256.68C237.61 256.68 238.39 256.8 239.09 257.04H244.58V258.93L241.79 259.05C242.37 259.89 242.66 260.86 242.66 261.96C242.66 262.94 242.42 263.83 241.95 264.63C241.48 265.43 240.81 266.07 239.94 266.54C239.07 267.01 238 267.24 236.74 267.24H236.75ZM232.37 273.84C232.37 274.84 232.79 275.58 233.63 276.07C234.47 276.56 235.52 276.81 236.78 276.81C238.04 276.81 239.01 276.54 239.76 276C240.51 275.46 240.88 274.74 240.88 273.84C240.88 273.2 240.62 272.64 240.1 272.17C239.58 271.7 238.62 271.43 237.22 271.35C236.12 271.27 235.17 271.17 234.37 271.05C233.55 271.49 233.01 271.97 232.75 272.48C232.49 272.99 232.36 273.44 232.36 273.84H232.37ZM236.75 265.17C237.81 265.17 238.66 264.9 239.29 264.34C239.92 263.79 240.24 263 240.24 261.96C240.24 260.92 239.92 260.16 239.29 259.61C238.66 259.06 237.81 258.78 236.75 258.78C235.69 258.78 234.82 259.06 234.18 259.61C233.55 260.16 233.24 260.94 233.24 261.96C233.24 262.98 233.55 263.79 234.18 264.34C234.81 264.89 235.67 265.17 236.75 265.17Z" fill="#F8F8F7"/>
<path d="M260.33 272.28C259.09 272.28 258.06 272.07 257.24 271.65C256.42 271.23 255.81 270.67 255.41 269.97C255.01 269.27 254.81 268.51 254.81 267.69C254.81 266.17 255.39 265 256.55 264.18C257.71 263.36 259.29 262.95 261.29 262.95H265.31V262.77C265.31 261.47 264.97 260.49 264.29 259.81C263.61 259.14 262.7 258.81 261.56 258.81C260.58 258.81 259.73 259.06 259.02 259.54C258.31 260.03 257.86 260.75 257.69 261.69H255.11C255.21 260.61 255.57 259.7 256.2 258.96C256.83 258.22 257.62 257.65 258.56 257.27C259.5 256.88 260.5 256.68 261.56 256.68C263.64 256.68 265.2 257.24 266.25 258.35C267.3 259.46 267.83 260.94 267.83 262.78V271.93H265.58L265.43 269.26C265.01 270.1 264.39 270.82 263.58 271.41C262.77 272 261.69 272.29 260.33 272.29V272.28ZM260.72 270.15C261.68 270.15 262.5 269.9 263.19 269.4C263.88 268.9 264.4 268.25 264.77 267.45C265.13 266.65 265.31 265.81 265.31 264.93V264.9H261.5C260.02 264.9 258.98 265.15 258.37 265.67C257.76 266.18 257.45 266.82 257.45 267.57C257.45 268.32 257.74 268.98 258.31 269.45C258.88 269.92 259.68 270.16 260.73 270.16L260.72 270.15Z" fill="#F8F8F7"/>
<path d="M271.61 271.92V257.04H273.89L274.04 259.71C274.52 258.77 275.21 258.03 276.11 257.49C277.01 256.95 278.03 256.68 279.17 256.68C280.93 256.68 282.34 257.22 283.39 258.29C284.44 259.36 284.96 261 284.96 263.22V271.92H282.44V263.49C282.44 260.39 281.16 258.84 278.6 258.84C277.32 258.84 276.25 259.3 275.4 260.24C274.55 261.17 274.12 262.5 274.12 264.22V271.93H271.6L271.61 271.92Z" fill="#F8F8F7"/>
<path d="M295.52 272.28C294.04 272.28 292.75 271.94 291.64 271.26C290.53 270.58 289.67 269.65 289.06 268.47C288.45 267.29 288.14 265.95 288.14 264.45C288.14 262.95 288.45 261.62 289.07 260.45C289.69 259.28 290.55 258.36 291.65 257.69C292.75 257.02 294.05 256.68 295.55 256.68C296.77 256.68 297.85 256.93 298.79 257.43C299.73 257.93 300.46 258.63 300.98 259.53V250.32H303.5V271.92H301.22L300.98 269.46C300.5 270.18 299.81 270.83 298.91 271.41C298.01 271.99 296.88 272.28 295.52 272.28ZM295.79 270.09C296.79 270.09 297.67 269.86 298.45 269.38C299.22 268.91 299.82 268.26 300.25 267.42C300.68 266.58 300.89 265.6 300.89 264.48C300.89 263.36 300.68 262.38 300.25 261.54C299.82 260.7 299.22 260.04 298.45 259.57C297.68 259.1 296.79 258.87 295.79 258.87C294.79 258.87 293.93 259.11 293.17 259.57C292.4 260.04 291.8 260.69 291.37 261.54C290.94 262.38 290.72 263.36 290.72 264.48C290.72 265.6 290.93 266.58 291.37 267.42C291.8 268.26 292.4 268.92 293.17 269.38C293.94 269.85 294.81 270.09 295.79 270.09Z" fill="#F8F8F7"/>
<path d="M322.25 272.28C320.83 272.28 319.57 271.95 318.47 271.3C317.37 270.65 316.51 269.75 315.87 268.59C315.24 267.43 314.93 266.06 314.93 264.48C314.93 262.9 315.24 261.55 315.86 260.38C316.48 259.21 317.35 258.3 318.45 257.65C319.56 257 320.85 256.67 322.31 256.67C323.77 256.67 324.99 257 326.05 257.65C327.1 258.3 327.9 259.16 328.47 260.21C329.03 261.27 329.31 262.41 329.31 263.63C329.31 263.85 329.31 264.07 329.29 264.29C329.29 264.51 329.28 264.76 329.28 265.04H317.43C317.49 266.18 317.75 267.12 318.22 267.87C318.69 268.62 319.28 269.19 319.99 269.57C320.7 269.95 321.45 270.14 322.25 270.14C323.29 270.14 324.16 269.9 324.86 269.42C325.56 268.94 326.07 268.29 326.39 267.47H328.88C328.48 268.85 327.71 269.99 326.59 270.91C325.46 271.82 324.01 272.27 322.25 272.27V272.28ZM322.25 258.81C321.05 258.81 319.99 259.18 319.06 259.9C318.13 260.63 317.59 261.7 317.45 263.1H326.81C326.75 261.76 326.29 260.71 325.43 259.95C324.57 259.19 323.51 258.81 322.25 258.81Z" fill="#F8F8F7"/>
<path d="M332.63 271.92V257.04H334.91L335.09 259.2C335.57 258.4 336.21 257.78 337.01 257.34C337.81 256.9 338.71 256.68 339.71 256.68C340.89 256.68 341.9 256.92 342.75 257.4C343.6 257.88 344.25 258.61 344.71 259.59C345.23 258.69 345.94 257.98 346.86 257.46C347.77 256.94 348.75 256.68 349.81 256.68C351.59 256.68 353.01 257.22 354.07 258.29C355.13 259.36 355.66 261 355.66 263.22V271.92H353.17V263.49C353.17 261.95 352.86 260.79 352.24 260.01C351.62 259.23 350.73 258.84 349.57 258.84C348.41 258.84 347.37 259.3 346.58 260.24C345.79 261.18 345.4 262.5 345.4 264.22V271.93H342.88V263.5C342.88 261.96 342.57 260.8 341.95 260.02C341.33 259.24 340.44 258.85 339.28 258.85C338.12 258.85 337.11 259.31 336.32 260.25C335.53 261.19 335.13 262.51 335.13 264.23V271.94H332.61L332.63 271.92Z" fill="#F8F8F7"/>
<path d="M359.48 278.52V257.04H361.76L362 259.5C362.48 258.78 363.17 258.13 364.05 257.55C364.94 256.97 366.08 256.68 367.46 256.68C368.94 256.68 370.23 257.02 371.33 257.7C372.43 258.38 373.28 259.31 373.89 260.49C374.5 261.67 374.81 263.01 374.81 264.51C374.81 266.01 374.51 267.34 373.89 268.52C373.28 269.69 372.42 270.61 371.31 271.28C370.2 271.95 368.91 272.28 367.43 272.28C366.21 272.28 365.13 272.03 364.18 271.53C363.23 271.03 362.51 270.33 362.01 269.43V278.52H359.49H359.48ZM367.16 270.09C368.16 270.09 369.04 269.86 369.8 269.38C370.56 268.91 371.16 268.26 371.6 267.42C372.04 266.58 372.26 265.6 372.26 264.48C372.26 263.36 372.04 262.38 371.6 261.54C371.16 260.7 370.56 260.04 369.8 259.57C369.04 259.1 368.16 258.87 367.16 258.87C366.16 258.87 365.28 259.11 364.52 259.57C363.76 260.04 363.16 260.69 362.72 261.54C362.28 262.38 362.06 263.36 362.06 264.48C362.06 265.6 362.28 266.58 362.72 267.42C363.16 268.26 363.76 268.92 364.52 269.38C365.28 269.85 366.16 270.09 367.16 270.09Z" fill="#F8F8F7"/>
<path d="M385.1 272.28C383.7 272.28 382.44 271.96 381.32 271.32C380.2 270.68 379.31 269.78 378.66 268.61C378.01 267.44 377.69 266.07 377.69 264.49C377.69 262.91 378.02 261.53 378.68 260.37C379.34 259.2 380.23 258.3 381.36 257.66C382.49 257.02 383.75 256.7 385.15 256.7C386.55 256.7 387.81 257.02 388.93 257.66C390.05 258.3 390.93 259.2 391.59 260.37C392.24 261.54 392.56 262.92 392.56 264.49C392.56 266.06 392.23 267.45 391.57 268.61C390.91 269.77 390.02 270.69 388.89 271.32C387.76 271.96 386.49 272.28 385.1 272.28ZM385.1 270.12C385.96 270.12 386.76 269.91 387.5 269.49C388.24 269.07 388.84 268.44 389.3 267.6C389.76 266.76 389.99 265.72 389.99 264.48C389.99 263.24 389.77 262.2 389.32 261.36C388.87 260.52 388.27 259.89 387.53 259.47C386.79 259.05 386 258.84 385.16 258.84C384.32 258.84 383.5 259.05 382.76 259.47C382.02 259.89 381.42 260.52 380.96 261.36C380.5 262.2 380.27 263.24 380.27 264.48C380.27 265.72 380.5 266.76 380.96 267.6C381.42 268.44 382.01 269.07 382.75 269.49C383.48 269.91 384.26 270.12 385.11 270.12H385.1Z" fill="#F8F8F7"/>
<path d="M398.51 271.92L394.16 257.04H396.68L399.83 268.71L403.31 257.04H406.16L409.67 268.71L412.79 257.04H415.34L410.99 271.92H408.41L404.75 259.65L401.09 271.92H398.51Z" fill="#F8F8F7"/>
<path d="M424.25 272.28C422.83 272.28 421.57 271.95 420.47 271.3C419.37 270.65 418.51 269.75 417.87 268.59C417.24 267.43 416.93 266.06 416.93 264.48C416.93 262.9 417.24 261.55 417.86 260.38C418.48 259.21 419.35 258.3 420.45 257.65C421.56 257 422.85 256.67 424.31 256.67C425.77 256.67 426.99 257 428.05 257.65C429.1 258.3 429.9 259.16 430.47 260.21C431.03 261.27 431.31 262.41 431.31 263.63C431.31 263.85 431.31 264.07 431.29 264.29C431.29 264.51 431.28 264.76 431.28 265.04H419.43C419.49 266.18 419.75 267.12 420.22 267.87C420.69 268.62 421.28 269.19 421.99 269.57C422.7 269.95 423.45 270.14 424.25 270.14C425.29 270.14 426.16 269.9 426.86 269.42C427.56 268.94 428.07 268.29 428.39 267.47H430.88C430.48 268.85 429.71 269.99 428.59 270.91C427.46 271.82 426.01 272.27 424.25 272.27V272.28ZM424.25 258.81C423.05 258.81 421.99 259.18 421.06 259.9C420.13 260.63 419.59 261.7 419.45 263.1H428.81C428.75 261.76 428.29 260.71 427.43 259.95C426.57 259.19 425.51 258.81 424.25 258.81Z" fill="#F8F8F7"/>
<path d="M434.63 271.92V257.04H436.91L437.12 259.89C437.58 258.91 438.28 258.13 439.22 257.55C440.16 256.97 441.32 256.68 442.7 256.68V259.32H442.01C441.13 259.32 440.32 259.48 439.58 259.79C438.84 260.1 438.25 260.62 437.81 261.36C437.37 262.1 437.15 263.12 437.15 264.42V271.92H434.63Z" fill="#F8F8F7"/>
<path d="M447.05 253.74C446.55 253.74 446.13 253.57 445.8 253.25C445.47 252.92 445.3 252.5 445.3 252C445.3 251.5 445.47 251.12 445.8 250.8C446.13 250.48 446.54 250.32 447.05 250.32C447.56 250.32 447.94 250.48 448.28 250.8C448.62 251.12 448.79 251.52 448.79 252C448.79 252.48 448.62 252.92 448.28 253.25C447.94 253.58 447.53 253.74 447.05 253.74ZM445.79 271.92V257.04H448.31V271.92H445.79Z" fill="#F8F8F7"/>
<path d="M452.69 271.92V257.04H454.97L455.12 259.71C455.6 258.77 456.29 258.03 457.19 257.49C458.09 256.95 459.11 256.68 460.25 256.68C462.01 256.68 463.42 257.22 464.47 258.29C465.52 259.36 466.04 261 466.04 263.22V271.92H463.52V263.49C463.52 260.39 462.24 258.84 459.68 258.84C458.4 258.84 457.33 259.3 456.48 260.24C455.63 261.17 455.2 262.5 455.2 264.22V271.93H452.68L452.69 271.92Z" fill="#F8F8F7"/>
<path d="M475.73 267.24C474.89 267.24 474.12 267.13 473.42 266.91L471.92 268.32C472.14 268.48 472.42 268.62 472.75 268.73C473.08 268.84 473.55 268.94 474.17 269.03C474.79 269.12 475.66 269.22 476.78 269.32C478.78 269.46 480.21 269.92 481.07 270.7C481.93 271.48 482.36 272.5 482.36 273.76C482.36 274.62 482.12 275.44 481.65 276.22C481.18 277 480.46 277.64 479.49 278.14C478.52 278.64 477.28 278.89 475.76 278.89C474.42 278.89 473.23 278.71 472.19 278.37C471.15 278.02 470.34 277.49 469.76 276.78C469.18 276.07 468.89 275.18 468.89 274.09C468.89 273.53 469.04 272.92 469.34 272.28C469.64 271.63 470.2 271.01 471.02 270.43C470.58 270.25 470.2 270.05 469.9 269.85C469.59 269.64 469.3 269.41 469.04 269.14V268.45L471.59 265.93C470.41 264.93 469.82 263.61 469.82 261.97C469.82 260.99 470.05 260.1 470.51 259.3C470.97 258.5 471.64 257.86 472.52 257.39C473.4 256.92 474.47 256.68 475.73 256.68C476.59 256.68 477.37 256.8 478.07 257.04H483.56V258.93L480.77 259.05C481.35 259.89 481.64 260.86 481.64 261.96C481.64 262.94 481.4 263.83 480.93 264.63C480.46 265.43 479.79 266.07 478.92 266.54C478.05 267.01 476.99 267.24 475.73 267.24ZM471.35 273.84C471.35 274.84 471.77 275.58 472.61 276.07C473.45 276.56 474.5 276.81 475.76 276.81C477.02 276.81 477.99 276.54 478.74 276C479.49 275.46 479.86 274.74 479.86 273.84C479.86 273.2 479.6 272.64 479.08 272.17C478.56 271.7 477.6 271.43 476.2 271.35C475.1 271.27 474.15 271.17 473.35 271.05C472.53 271.49 471.99 271.97 471.73 272.48C471.47 272.99 471.34 273.44 471.34 273.84H471.35ZM475.73 265.17C476.79 265.17 477.64 264.9 478.27 264.34C478.9 263.79 479.21 263 479.21 261.96C479.21 260.92 478.9 260.16 478.27 259.61C477.64 259.06 476.79 258.78 475.73 258.78C474.67 258.78 473.79 259.06 473.16 259.61C472.53 260.16 472.22 260.94 472.22 261.96C472.22 262.98 472.53 263.79 473.16 264.34C473.79 264.89 474.65 265.17 475.73 265.17Z" fill="#F8F8F7"/>
<path d="M139.96 307.92C138.6 307.92 137.53 307.59 136.75 306.93C135.97 306.27 135.58 305.08 135.58 303.36V295.17H133V293.04H135.58L135.91 289.47H138.1V293.04H142.48V295.17H138.1V303.36C138.1 304.3 138.29 304.94 138.67 305.27C139.05 305.6 139.72 305.76 140.68 305.76H142.24V307.92H139.96Z" fill="#F8F8F7"/>
<path d="M145.69 307.92V286.32H148.21V295.59C148.71 294.67 149.42 293.96 150.34 293.44C151.26 292.93 152.26 292.67 153.34 292.67C155.06 292.67 156.44 293.21 157.48 294.28C158.52 295.35 159.04 296.99 159.04 299.21V307.91H156.55V299.48C156.55 296.38 155.3 294.83 152.8 294.83C151.5 294.83 150.41 295.29 149.53 296.23C148.65 297.16 148.21 298.49 148.21 300.21V307.92H145.69Z" fill="#F8F8F7"/>
<path d="M169.54 308.28C168.12 308.28 166.86 307.95 165.76 307.3C164.66 306.65 163.8 305.75 163.16 304.59C162.53 303.43 162.22 302.06 162.22 300.48C162.22 298.9 162.53 297.55 163.15 296.38C163.77 295.21 164.64 294.3 165.74 293.65C166.85 293 168.14 292.67 169.6 292.67C171.06 292.67 172.28 293 173.34 293.65C174.39 294.3 175.19 295.16 175.76 296.21C176.32 297.27 176.6 298.41 176.6 299.63C176.6 299.85 176.6 300.07 176.58 300.29C176.58 300.51 176.57 300.76 176.57 301.04H164.72C164.78 302.18 165.04 303.12 165.51 303.87C165.98 304.62 166.57 305.19 167.28 305.57C167.99 305.95 168.74 306.14 169.54 306.14C170.58 306.14 171.45 305.9 172.15 305.42C172.85 304.94 173.36 304.29 173.68 303.47H176.17C175.77 304.85 175 305.99 173.88 306.91C172.75 307.82 171.3 308.27 169.54 308.27V308.28ZM169.54 294.81C168.34 294.81 167.28 295.18 166.35 295.9C165.42 296.63 164.88 297.7 164.74 299.1H174.1C174.04 297.76 173.58 296.71 172.72 295.95C171.86 295.19 170.8 294.81 169.54 294.81Z" fill="#F8F8F7"/>
<path d="M190.87 307.92L186.52 293.04H189.04L192.19 304.71L195.67 293.04H198.52L202.03 304.71L205.15 293.04H207.7L203.35 307.92H200.77L197.11 295.65L193.45 307.92H190.87Z" fill="#F8F8F7"/>
<path d="M216.7 308.28C215.3 308.28 214.04 307.96 212.92 307.32C211.8 306.68 210.91 305.78 210.26 304.61C209.61 303.44 209.29 302.07 209.29 300.49C209.29 298.91 209.62 297.53 210.28 296.37C210.94 295.2 211.83 294.3 212.96 293.66C214.09 293.02 215.35 292.7 216.75 292.7C218.15 292.7 219.41 293.02 220.53 293.66C221.65 294.3 222.53 295.2 223.19 296.37C223.84 297.54 224.16 298.92 224.16 300.49C224.16 302.06 223.83 303.45 223.17 304.61C222.51 305.77 221.62 306.69 220.49 307.32C219.36 307.96 218.09 308.28 216.7 308.28ZM216.7 306.12C217.56 306.12 218.36 305.91 219.1 305.49C219.84 305.07 220.44 304.44 220.9 303.6C221.36 302.76 221.59 301.72 221.59 300.48C221.59 299.24 221.37 298.2 220.92 297.36C220.47 296.52 219.87 295.89 219.13 295.47C218.39 295.05 217.6 294.84 216.76 294.84C215.92 294.84 215.1 295.05 214.36 295.47C213.62 295.89 213.02 296.52 212.56 297.36C212.1 298.2 211.87 299.24 211.87 300.48C211.87 301.72 212.1 302.76 212.56 303.6C213.02 304.44 213.61 305.07 214.35 305.49C215.08 305.91 215.86 306.12 216.71 306.12H216.7Z" fill="#F8F8F7"/>
<path d="M227.68 307.92V293.04H229.96L230.17 295.89C230.63 294.91 231.33 294.13 232.27 293.55C233.21 292.97 234.37 292.68 235.75 292.68V295.32H235.06C234.18 295.32 233.37 295.48 232.63 295.79C231.89 296.1 231.3 296.62 230.86 297.36C230.42 298.1 230.2 299.12 230.2 300.42V307.92H227.68Z" fill="#F8F8F7"/>
<path d="M238.57 307.92V286.32H241.09V307.92H238.57Z" fill="#F8F8F7"/>
<path d="M251.98 308.28C250.5 308.28 249.2 307.94 248.1 307.26C246.99 306.58 246.13 305.65 245.52 304.47C244.91 303.29 244.6 301.95 244.6 300.45C244.6 298.95 244.91 297.62 245.53 296.45C246.15 295.28 247.01 294.36 248.11 293.69C249.21 293.02 250.51 292.68 252.01 292.68C253.23 292.68 254.31 292.93 255.25 293.43C256.19 293.93 256.92 294.63 257.44 295.53V286.32H259.96V307.92H257.68L257.44 305.46C256.96 306.18 256.27 306.83 255.37 307.41C254.47 307.99 253.34 308.28 251.98 308.28ZM252.25 306.09C253.25 306.09 254.13 305.86 254.91 305.38C255.68 304.91 256.28 304.26 256.71 303.42C257.14 302.58 257.36 301.6 257.36 300.48C257.36 299.36 257.14 298.38 256.71 297.54C256.28 296.7 255.68 296.04 254.91 295.57C254.14 295.1 253.25 294.87 252.25 294.87C251.25 294.87 250.4 295.11 249.63 295.57C248.86 296.04 248.26 296.69 247.83 297.54C247.4 298.38 247.19 299.36 247.19 300.48C247.19 301.6 247.4 302.58 247.83 303.42C248.26 304.26 248.86 304.92 249.63 305.38C250.4 305.85 251.28 306.09 252.25 306.09Z" fill="#F8F8F7"/>
<path d="M262.99 293.61L264.73 286.92H267.55L264.79 293.61H262.99Z" fill="#F8F8F7"/>
<path d="M274.87 308.28C273.09 308.28 271.61 307.83 270.43 306.93C269.25 306.03 268.56 304.81 268.36 303.27H270.94C271.1 304.05 271.52 304.73 272.19 305.29C272.86 305.85 273.77 306.14 274.9 306.14C275.96 306.14 276.74 305.91 277.24 305.47C277.74 305.02 277.99 304.49 277.99 303.87C277.99 302.97 277.66 302.37 277.01 302.07C276.36 301.77 275.44 301.5 274.26 301.26C273.46 301.1 272.66 300.87 271.86 300.57C271.06 300.27 270.39 299.85 269.85 299.3C269.31 298.75 269.04 298.03 269.04 297.13C269.04 295.83 269.52 294.76 270.5 293.93C271.47 293.1 272.78 292.68 274.45 292.68C276.12 292.68 277.32 293.08 278.33 293.87C279.34 294.66 279.92 295.79 280.08 297.25H277.59C277.49 296.49 277.17 295.9 276.62 295.47C276.07 295.04 275.33 294.82 274.41 294.82C273.49 294.82 272.81 295.01 272.33 295.39C271.84 295.77 271.59 296.27 271.59 296.89C271.59 297.51 271.91 297.96 272.54 298.3C273.17 298.64 274.03 298.93 275.1 299.17C276.02 299.37 276.89 299.62 277.72 299.9C278.55 300.19 279.23 300.62 279.76 301.19C280.29 301.76 280.56 302.59 280.56 303.67C280.58 305.01 280.07 306.11 279.04 306.98C278.01 307.85 276.62 308.28 274.86 308.28H274.87Z" fill="#F8F8F7"/>
<path d="M297.82 308.28C296.04 308.28 294.56 307.83 293.38 306.93C292.2 306.03 291.51 304.81 291.31 303.27H293.89C294.05 304.05 294.47 304.73 295.14 305.29C295.81 305.85 296.72 306.14 297.85 306.14C298.91 306.14 299.69 305.91 300.19 305.47C300.69 305.02 300.94 304.49 300.94 303.87C300.94 302.97 300.61 302.37 299.96 302.07C299.31 301.77 298.39 301.5 297.21 301.26C296.41 301.1 295.61 300.87 294.81 300.57C294.01 300.27 293.34 299.85 292.8 299.3C292.26 298.75 291.99 298.03 291.99 297.13C291.99 295.83 292.47 294.76 293.45 293.93C294.42 293.1 295.73 292.68 297.4 292.68C299.07 292.68 300.27 293.08 301.28 293.87C302.29 294.66 302.87 295.79 303.03 297.25H300.54C300.44 296.49 300.12 295.9 299.57 295.47C299.02 295.04 298.28 294.82 297.36 294.82C296.44 294.82 295.76 295.01 295.28 295.39C294.79 295.77 294.54 296.27 294.54 296.89C294.54 297.51 294.86 297.96 295.49 298.3C296.12 298.64 296.98 298.93 298.05 299.17C298.97 299.37 299.84 299.62 300.67 299.9C301.5 300.19 302.18 300.62 302.71 301.19C303.24 301.76 303.51 302.59 303.51 303.67C303.53 305.01 303.02 306.11 301.99 306.98C300.96 307.85 299.57 308.28 297.81 308.28H297.82Z" fill="#F8F8F7"/>
<path d="M312.54 308.28C310.78 308.28 309.38 307.75 308.34 306.68C307.3 305.61 306.78 303.97 306.78 301.74V293.04H309.3V301.47C309.3 304.57 310.57 306.12 313.11 306.12C314.41 306.12 315.49 305.65 316.33 304.72C317.18 303.79 317.61 302.47 317.61 300.74V293.03H320.13V307.91H317.85L317.67 305.24C317.21 306.18 316.53 306.92 315.62 307.46C314.71 308 313.69 308.27 312.54 308.27V308.28Z" fill="#F8F8F7"/>
<path d="M324.27 314.52V293.04H326.55L326.79 295.5C327.27 294.78 327.96 294.13 328.84 293.55C329.73 292.97 330.87 292.68 332.25 292.68C333.73 292.68 335.02 293.02 336.12 293.7C337.22 294.38 338.07 295.31 338.68 296.49C339.29 297.67 339.6 299.01 339.6 300.51C339.6 302.01 339.3 303.34 338.68 304.52C338.07 305.69 337.21 306.61 336.1 307.28C334.99 307.95 333.7 308.28 332.22 308.28C331 308.28 329.92 308.03 328.97 307.53C328.02 307.03 327.3 306.33 326.8 305.43V314.52H324.28H324.27ZM331.95 306.09C332.95 306.09 333.83 305.86 334.59 305.38C335.35 304.91 335.95 304.26 336.39 303.42C336.83 302.58 337.05 301.6 337.05 300.48C337.05 299.36 336.83 298.38 336.39 297.54C335.95 296.7 335.35 296.04 334.59 295.57C333.83 295.1 332.95 294.87 331.95 294.87C330.95 294.87 330.07 295.11 329.31 295.57C328.55 296.04 327.95 296.69 327.51 297.54C327.07 298.38 326.85 299.36 326.85 300.48C326.85 301.6 327.07 302.58 327.51 303.42C327.95 304.26 328.55 304.92 329.31 305.38C330.07 305.85 330.95 306.09 331.95 306.09Z" fill="#F8F8F7"/>
<path d="M343.11 314.52V293.04H345.39L345.63 295.5C346.11 294.78 346.8 294.13 347.69 293.55C348.58 292.97 349.71 292.68 351.09 292.68C352.57 292.68 353.86 293.02 354.96 293.7C356.06 294.38 356.92 295.31 357.53 296.49C358.14 297.67 358.45 299.01 358.45 300.51C358.45 302.01 358.14 303.34 357.53 304.52C356.92 305.69 356.06 306.61 354.95 307.28C353.84 307.95 352.54 308.28 351.07 308.28C349.85 308.28 348.76 308.03 347.82 307.53C346.87 307.03 346.14 306.33 345.64 305.43V314.52H343.12H343.11ZM350.79 306.09C351.79 306.09 352.67 305.86 353.43 305.38C354.19 304.91 354.79 304.26 355.23 303.42C355.67 302.58 355.89 301.6 355.89 300.48C355.89 299.36 355.67 298.38 355.23 297.54C354.79 296.7 354.19 296.04 353.43 295.57C352.67 295.1 351.79 294.87 350.79 294.87C349.79 294.87 348.91 295.11 348.15 295.57C347.39 296.04 346.79 296.69 346.35 297.54C345.91 298.38 345.69 299.36 345.69 300.48C345.69 301.6 345.91 302.58 346.35 303.42C346.79 304.26 347.39 304.92 348.15 305.38C348.91 305.85 349.79 306.09 350.79 306.09Z" fill="#F8F8F7"/>
<path d="M361.95 307.92V286.32H364.47V307.92H361.95Z" fill="#F8F8F7"/>
<path d="M370.23 314.52L373.92 306.48H373.05L367.14 293.04H369.87L374.79 304.62L380.01 293.04H382.62L372.87 314.52H370.23Z" fill="#F8F8F7"/>
<path d="M400.08 308.28C398.66 308.28 397.38 307.95 396.25 307.3C395.12 306.65 394.23 305.74 393.58 304.57C392.93 303.4 392.6 302.04 392.6 300.48C392.6 298.92 392.93 297.55 393.58 296.38C394.23 295.21 395.12 294.3 396.25 293.65C397.38 293 398.65 292.67 400.08 292.67C401.84 292.67 403.32 293.13 404.54 294.05C405.75 294.97 406.51 296.2 406.83 297.74H404.25C404.05 296.82 403.56 296.1 402.78 295.59C402 295.08 401.09 294.82 400.05 294.82C399.21 294.82 398.42 295.03 397.68 295.45C396.94 295.87 396.34 296.5 395.88 297.34C395.42 298.18 395.19 299.22 395.19 300.46C395.19 301.7 395.42 302.74 395.88 303.58C396.34 304.42 396.94 305.06 397.68 305.48C398.42 305.91 399.21 306.13 400.05 306.13C401.09 306.13 402 305.88 402.78 305.36C403.56 304.85 404.05 304.13 404.25 303.19H406.83C406.53 304.69 405.77 305.91 404.55 306.85C403.33 307.79 401.84 308.26 400.08 308.26V308.28Z" fill="#F8F8F7"/>
<path d="M410.34 307.92V286.32H412.86V295.59C413.36 294.67 414.07 293.96 414.99 293.44C415.91 292.93 416.91 292.67 417.99 292.67C419.71 292.67 421.09 293.21 422.13 294.28C423.17 295.35 423.69 296.99 423.69 299.21V307.91H421.2V299.48C421.2 296.38 419.95 294.83 417.45 294.83C416.15 294.83 415.06 295.29 414.18 296.23C413.3 297.16 412.86 298.49 412.86 300.21V307.92H410.34Z" fill="#F8F8F7"/>
<path d="M432.45 308.28C431.21 308.28 430.18 308.07 429.36 307.65C428.54 307.23 427.93 306.67 427.53 305.97C427.13 305.27 426.93 304.51 426.93 303.69C426.93 302.17 427.51 301 428.67 300.18C429.83 299.36 431.41 298.95 433.41 298.95H437.43V298.77C437.43 297.47 437.09 296.49 436.41 295.81C435.73 295.14 434.82 294.81 433.68 294.81C432.7 294.81 431.85 295.06 431.14 295.54C430.43 296.03 429.98 296.75 429.81 297.69H427.23C427.33 296.61 427.69 295.7 428.32 294.96C428.95 294.22 429.74 293.65 430.68 293.27C431.62 292.88 432.62 292.68 433.68 292.68C435.76 292.68 437.32 293.24 438.37 294.35C439.42 295.46 439.95 296.94 439.95 298.78V307.93H437.7L437.55 305.26C437.13 306.1 436.51 306.82 435.7 307.41C434.89 308 433.81 308.29 432.45 308.29V308.28ZM432.84 306.15C433.8 306.15 434.62 305.9 435.31 305.4C436 304.9 436.52 304.25 436.89 303.45C437.25 302.65 437.43 301.81 437.43 300.93V300.9H433.62C432.14 300.9 431.1 301.15 430.49 301.67C429.88 302.18 429.57 302.82 429.57 303.57C429.57 304.32 429.86 304.98 430.43 305.45C431 305.92 431.8 306.16 432.85 306.16L432.84 306.15Z" fill="#F8F8F7"/>
<path d="M445.26 289.74C444.76 289.74 444.34 289.57 444.01 289.25C443.68 288.92 443.51 288.5 443.51 288C443.51 287.5 443.68 287.12 444.01 286.8C444.34 286.48 444.76 286.32 445.26 286.32C445.76 286.32 446.15 286.48 446.49 286.8C446.83 287.12 447 287.52 447 288C447 288.48 446.83 288.92 446.49 289.25C446.15 289.58 445.74 289.74 445.26 289.74ZM444 307.92V293.04H446.52V307.92H444Z" fill="#F8F8F7"/>
<path d="M450.9 307.92V293.04H453.18L453.33 295.71C453.81 294.77 454.5 294.03 455.4 293.49C456.3 292.95 457.32 292.68 458.46 292.68C460.22 292.68 461.63 293.22 462.67 294.29C463.71 295.36 464.25 297 464.25 299.22V307.92H461.73V299.49C461.73 296.39 460.45 294.84 457.89 294.84C456.61 294.84 455.55 295.3 454.7 296.24C453.85 297.17 453.42 298.5 453.42 300.22V307.93H450.9V307.92Z" fill="#F8F8F7"/>
<path d="M473.76 308.28C471.98 308.28 470.5 307.83 469.32 306.93C468.14 306.03 467.45 304.81 467.25 303.27H469.83C469.99 304.05 470.41 304.73 471.08 305.29C471.75 305.85 472.66 306.14 473.79 306.14C474.85 306.14 475.63 305.91 476.13 305.47C476.63 305.02 476.88 304.49 476.88 303.87C476.88 302.97 476.55 302.37 475.91 302.07C475.26 301.77 474.34 301.5 473.16 301.26C472.36 301.1 471.56 300.87 470.76 300.57C469.96 300.27 469.29 299.85 468.75 299.3C468.21 298.75 467.94 298.03 467.94 297.13C467.94 295.83 468.42 294.76 469.4 293.93C470.37 293.1 471.68 292.68 473.34 292.68C475 292.68 476.22 293.08 477.23 293.87C478.24 294.66 478.82 295.79 478.98 297.25H476.49C476.39 296.49 476.07 295.9 475.52 295.47C474.97 295.04 474.23 294.82 473.31 294.82C472.39 294.82 471.71 295.01 471.23 295.39C470.74 295.77 470.49 296.27 470.49 296.89C470.49 297.51 470.81 297.96 471.44 298.3C472.07 298.64 472.92 298.93 474 299.17C474.92 299.37 475.79 299.62 476.62 299.9C477.45 300.19 478.13 300.62 478.66 301.19C479.19 301.76 479.45 302.59 479.45 303.67C479.47 305.01 478.96 306.11 477.94 306.98C476.91 307.85 475.51 308.28 473.75 308.28H473.76Z" fill="#F8F8F7"/>
</g>
<defs>
<clipPath id="clip0_14_7040">
<rect width="613" height="1032" fill="white"/>
</clipPath>
</defs>
</svg>
